HIERARCHY
ROOT Hips
{
	OFFSET 0.00000 0.00000 0.00000
	CHANNELS 6 Xposition Yposition Zposition Zrotation Yrotation Xrotation 
	JOINT LHipJoint
	{
		OFFSET 0 0 0
		CHANNELS 3 Zrotation Yrotation Xrotation
		JOINT LeftHip
		{
			OFFSET 1.62964 -1.40469 0.78906
			CHANNELS 3 Zrotation Yrotation Xrotation
			JOINT LeftKnee
			{
				OFFSET 2.29640 -6.30932 0.00000
				CHANNELS 3 Zrotation Yrotation Xrotation
				JOINT LeftAnkle
				{
					OFFSET 2.29451 -6.30412 0.00000
					CHANNELS 3 Zrotation Yrotation Xrotation
					JOINT LeftToe
					{
						OFFSET 0.03611 -0.09921 1.56387
						CHANNELS 3 Zrotation Yrotation Xrotation
						End Site
						{
							OFFSET 0.00000 -0.00000 0.80291
						}
					}
				}
			}
		}
	}
	JOINT RHipJoint
	{
		OFFSET 0 0 0
		CHANNELS 3 Zrotation Yrotation Xrotation
		JOINT RightHip
		{
			OFFSET -1.73712 -1.40469 0.78906
			CHANNELS 3 Zrotation Yrotation Xrotation
			JOINT RightKnee
			{
				OFFSET -2.28137 -6.26801 0.00000
				CHANNELS 3 Zrotation Yrotation Xrotation
				JOINT RightAnkle
				{
					OFFSET -2.28681 -6.28298 0.00000
					CHANNELS 3 Zrotation Yrotation Xrotation
					JOINT RightToe
					{
						OFFSET -0.15927 -0.43759 1.61103
						CHANNELS 3 Zrotation Yrotation Xrotation
						End Site
						{
							OFFSET -0.00000 -0.00000 0.84630
						}
					}
				}
			}
		}
	}
	JOINT lowerback
	{
		OFFSET 0 0 0
		CHANNELS 3 Zrotation Yrotation Xrotation
		JOINT Chest
		{
			OFFSET -0.04227 2.04338 -0.00225
			CHANNELS 3 Zrotation Yrotation Xrotation
			JOINT Chest2
			{
				OFFSET -0.02148 2.04482 -0.04273
				CHANNELS 3 Zrotation Yrotation Xrotation
				JOINT lowerneck
				{
					OFFSET 0 0 0
					CHANNELS 3 Zrotation Yrotation Xrotation
					JOINT Neck
					{
						OFFSET 0.09180 1.44629 0.19359
						CHANNELS 3 Zrotation Yrotation Xrotation
						JOINT Head
						{
							OFFSET 0.00887 1.40645 0.14750
							CHANNELS 3 Zrotation Yrotation Xrotation
							End Site
							{
								OFFSET -0.00669 1.50671 0.03707
							}
						}
					}
				}
				JOINT LeftCollar
				{
					OFFSET 0 0 0
					CHANNELS 3 Zrotation Yrotation Xrotation
					JOINT LeftShoulder
					{
						OFFSET 2.17674 1.86763 -0.06520
CHANNELS 3 Zrotation Xrotation Yrotation
						JOINT LeftElbow
						{
OFFSET 0 -4.657760 0.000000
CHANNELS 3 Zrotation Xrotation Yrotation
							JOINT LeftWrist
							{
OFFSET 0 -3.555390 0.000000
CHANNELS 3 Zrotation Xrotation Yrotation
								JOINT lhand
								{
									OFFSET 0 0 0
CHANNELS 3 Zrotation Xrotation Yrotation
									JOINT LFingers
									{
OFFSET 0 -0.707260 0.000000
CHANNELS 3 Zrotation Xrotation Yrotation
										End Site
										{
OFFSET 0 -0.570220 0.000000
										}
									}
								}
								JOINT LThumb
								{
OFFSET 0 0.000000 0.000000
CHANNELS 3 Zrotation Xrotation Yrotation
									End Site
									{
OFFSET 0 -0.578920 0.578920
									}
								}
							}
						}
					}
				}
				JOINT RightCollar
				{
					OFFSET 0 0 0
					CHANNELS 3 Zrotation Yrotation Xrotation
					JOINT RightShoulder
					{
						OFFSET -2.80694 1.55459 -0.32496
CHANNELS 3 Zrotation Xrotation Yrotation
						JOINT RightElbow
						{
OFFSET 0 -4.719250 -0.000000
CHANNELS 3 Zrotation Xrotation Yrotation
							JOINT RightWrist
							{
OFFSET 0 -3.569900 0.000000
CHANNELS 3 Zrotation Xrotation Yrotation
								JOINT rhand
								{
									OFFSET 0 0 0
CHANNELS 3 Zrotation Xrotation Yrotation
									JOINT RFingers
									{
OFFSET 0 -0.507760 0.000000
CHANNELS 3 Zrotation Xrotation Yrotation
										End Site
										{
OFFSET 0 -0.409370 0.000000
										}
									}
								}
								JOINT RThumb
								{
OFFSET 0 0.000000 0.000000
CHANNELS 3 Zrotation Xrotation Yrotation
									End Site
									{
OFFSET 0 -0.415620 0.415620
									}
								}
							}
						}
					}
				}
			}
		}
	}
}
MOTION
Frames: 12
Frame Time: 0.008333333333333333
9.166500 16.395500 19.285200 -179.697000 -1.159500 -152.149000 0.000000 0.000000 0.000000 -15.956800 -16.094900 -24.587100 0.218200 3.007200 8.298700 0.137600 1.600100 -7.785400 5.607000 -14.036400 -43.383500 0.000000 0.000000 0.000000 15.081500 14.744100 -26.118300 -0.265400 -3.313900 9.154000 -0.918700 2.424500 -17.458400 -3.190900 10.997800 -32.272500 -5.065400 -1.221900 -26.435700 -0.290100 -0.611700 -1.631700 2.310300 -0.801600 12.991900 -8.477800 -4.434700 3.034900 17.263200 -5.738300 -11.103400 6.926600 -3.658500 -2.949400 -0.000000 0.000000 0.000000 3.553600 -4.719200 -25.067300 9.205100 -15.486800 1.254300 21.924800 6.115000 13.122000 0.000000 0.000000 0.000000 -7.125000 0.000000 0.000000 -3.719200 15.894000 -2.563900 -0.000000 0.000000 0.000000 2.915900 -2.467700 3.921500 -12.033600 -19.855100 -2.113700 -13.206600 20.016800 48.490000 0.000000 0.000000 0.000000 7.125000 0.000000 -0.000000 50.472300 74.246500 -37.025600
9.167041 16.394959 19.283307 -179.714579 -1.181271 -152.168608 0.000000 0.000000 0.000000 -15.956259 -16.138578 -24.557756 0.219620 3.016936 8.325880 0.140913 1.586307 -7.859233 5.466771 -13.890221 -42.800949 0.000000 0.000000 0.000000 15.049452 14.825032 -26.018166 -0.261952 -3.292467 9.094095 -0.919782 2.270478 -17.501131 -3.207600 11.023763 -32.360058 -5.097043 -1.234814 -26.422245 -0.292399 -0.620692 -1.638394 2.322673 -0.807415 12.977634 -8.345009 -4.456066 2.794537 17.154073 -5.769672 -10.978655 6.855539 -3.661543 -2.876243 0.000000 0.000000 0.000000 3.611476 -4.709937 -25.478994 9.393198 -15.784634 1.305212 21.762056 5.750635 13.361417 0.000000 0.000000 0.000000 -7.125000 0.000000 0.000000 -3.841917 15.655801 -2.668970 0.000000 0.000000 0.000000 2.919348 -2.425848 4.188097 -12.144620 -20.021089 -2.151631 -12.865021 19.722955 49.060786 0.000000 0.000000 0.000000 7.125000 0.000000 0.000000 52.519815 74.421482 -38.887248
9.167406 16.394277 19.280885 -179.725818 -1.208362 -152.205124 0.000000 0.000000 0.000000 -15.948250 -16.192436 -24.494525 0.221110 3.026954 8.353765 0.145635 1.542326 -7.947755 5.263454 -13.671655 -41.943253 0.000000 0.000000 0.000000 15.041321 14.881201 -25.894782 -0.258010 -3.267758 9.025067 -0.919807 2.147420 -17.527588 -3.211760 11.030247 -32.381922 -5.116955 -1.252589 -26.407698 -0.288850 -0.638597 -1.636316 2.331735 -0.816505 12.973900 -8.199501 -4.513432 2.595986 17.059952 -5.847155 -10.949440 6.792369 -3.695443 -2.832147 0.000000 0.000000 0.000000 3.656707 -4.725895 -25.816080 9.565234 -16.056436 1.352356 21.761983 5.428189 13.483603 0.000000 0.000000 0.000000 -7.125000 0.000000 0.000000 -3.847545 15.525602 -2.683370 0.000000 0.000000 0.000000 2.910749 -2.415205 4.416685 -12.234117 -20.154741 -2.182305 -12.526330 19.402691 49.452275 0.000000 0.000000 0.000000 7.125000 0.000000 0.000000 54.010417 74.498114 -40.199521
9.167623 16.393520 19.278040 -179.731142 -1.240845 -152.256788 0.000000 0.000000 0.000000 -15.935677 -16.250233 -24.403768 0.222793 3.038097 8.384719 0.151437 1.470524 -8.044580 5.019571 -13.405646 -40.906871 0.000000 0.000000 0.000000 15.054549 14.916623 -25.750535 -0.253650 -3.240246 8.948241 -0.918843 2.050724 -17.539440 -3.203170 11.016913 -32.336957 -5.126035 -1.275154 -26.391747 -0.279551 -0.665195 -1.626223 2.337977 -0.828835 12.979620 -8.049377 -4.597194 2.441814 16.976362 -5.958268 -10.997966 6.736444 -3.752276 -2.813865 0.000000 0.000000 0.000000 3.689161 -4.766201 -26.077245 9.720640 -16.301344 1.395540 21.916041 5.152794 13.502219 0.000000 0.000000 0.000000 -7.125000 0.000000 0.000000 -3.742597 15.489705 -2.612728 0.000000 0.000000 0.000000 2.890084 -2.433979 4.611046 -12.302671 -20.256937 -2.205916 -12.205461 19.065369 49.667368 0.000000 0.000000 0.000000 7.125000 0.000000 0.000000 54.940592 74.484301 -40.966048
9.168164 16.393993 19.276621 -179.734523 -1.284793 -152.299384 0.000000 0.000000 0.000000 -15.975636 -16.184311 -24.395857 0.227391 3.068996 8.470925 0.152316 1.397231 -8.022674 5.173728 -13.575895 -41.566095 0.000000 0.000000 0.000000 15.053332 14.998164 -25.617946 -0.250066 -3.217529 8.884888 -0.917491 1.905965 -17.559453 -3.166727 10.960051 -32.145343 -5.134013 -1.305039 -26.366663 -0.261701 -0.703193 -1.617230 2.349336 -0.846347 12.980093 -8.060736 -4.527958 2.423085 16.818216 -5.869357 -10.816087 6.680326 -3.685002 -2.774920 0.000000 0.000000 0.000000 3.695381 -4.832935 -26.171227 9.833553 -16.478692 1.427453 22.174322 5.071659 13.617025 0.000000 0.000000 0.000000 -7.125000 0.000000 0.000000 -3.570996 15.339740 -2.503804 0.000000 0.000000 0.000000 2.846812 -2.469205 4.821795 -12.344861 -20.319749 -2.220588 -12.230749 18.893091 49.618957 0.000000 0.000000 0.000000 7.125000 0.000000 0.000000 54.766489 74.470035 -40.805198
9.168895 16.394505 19.275543 -179.734477 -1.318083 -152.330942 0.000000 0.000000 0.000000 -16.006765 -16.109139 -24.400203 0.230123 3.087524 8.522607 0.152890 1.335891 -8.001757 5.301887 -13.715427 -42.110101 0.000000 0.000000 0.000000 15.046710 15.094473 -25.507472 -0.247244 -3.199492 8.834590 -0.917281 1.775442 -17.588336 -3.129827 10.902161 -31.950683 -5.140050 -1.327578 -26.341274 -0.248305 -0.732285 -1.611854 2.357764 -0.859633 12.975314 -8.071676 -4.470485 2.328648 16.637955 -5.798527 -10.569768 6.612332 -3.620277 -2.702670 0.000000 0.000000 0.000000 3.726343 -4.881855 -26.378637 9.941137 -16.647362 1.458110 22.548315 4.950671 13.805142 0.000000 0.000000 0.000000 -7.125000 0.000000 0.000000 -3.324867 15.097662 -2.347110 0.000000 0.000000 0.000000 2.810619 -2.481403 5.049368 -12.381532 -20.374339 -2.233357 -12.412895 18.850953 49.559508 0.000000 0.000000 0.000000 7.125000 0.000000 0.000000 54.438610 74.509514 -40.568981
9.169723 16.394983 19.274596 -179.734214 -1.340302 -152.354668 0.000000 0.000000 0.000000 -16.033626 -16.028943 -24.408745 0.231181 3.094888 8.543141 0.153455 1.283937 -7.986927 5.394358 -13.814521 -42.499431 0.000000 0.000000 0.000000 15.034478 15.196384 -25.416806 -0.245251 -3.186652 8.798782 -0.918212 1.661368 -17.625340 -3.097653 10.851482 -31.780548 -5.146885 -1.342807 -26.314701 -0.239887 -0.751658 -1.609926 2.364547 -0.868448 12.964958 -8.077608 -4.425536 2.175620 16.442495 -5.746063 -10.279921 6.535248 -3.560490 -2.606017 0.000000 0.000000 0.000000 3.778373 -4.914766 -26.683448 10.043852 -16.808119 1.487616 23.019154 4.791344 14.048189 0.000000 0.000000 0.000000 -7.125000 0.000000 0.000000 -3.016231 14.785039 -2.149427 0.000000 0.000000 0.000000 2.778697 -2.476546 5.282429 -12.409770 -20.416371 -2.243201 -12.718710 18.913051 49.478071 0.000000 0.000000 0.000000 7.125000 0.000000 0.000000 53.946551 74.584519 -40.230807
9.169993 16.394780 19.272162 -179.760583 -1.331985 -152.386446 0.000000 0.000000 0.000000 -16.088730 -15.972284 -24.359253 0.229761 3.085220 8.516231 0.156498 1.233160 -8.030132 5.317617 -13.732574 -42.176986 0.000000 0.000000 0.000000 15.006825 15.234315 -25.354941 -0.245860 -3.190844 8.810479 -0.921931 1.606196 -17.675847 -3.120911 10.888196 -31.903806 -5.178866 -1.340508 -26.277784 -0.248068 -0.740434 -1.614997 2.378204 -0.864256 12.938251 -8.032443 -4.417625 2.024573 16.268528 -5.740857 -10.060991 6.459590 -3.532971 -2.525220 0.000000 0.000000 0.000000 3.850719 -4.923894 -27.090206 10.138578 -16.956056 1.515202 23.566546 4.551251 14.269621 0.000000 0.000000 0.000000 -7.125000 0.000000 0.000000 -2.656870 14.482946 -1.909132 0.000000 0.000000 0.000000 2.733396 -2.480671 5.432868 -12.392731 -20.391017 -2.237251 -13.045212 19.010143 49.250217 0.000000 0.000000 0.000000 7.125000 0.000000 0.000000 52.965626 74.591888 -39.418508
9.170059 16.394332 19.270096 -179.771000 -1.334876 -152.387139 0.000000 0.000000 0.000000 -16.113609 -15.938979 -24.351684 0.229445 3.082954 8.509895 0.158559 1.186105 -8.052476 5.311759 -13.726418 -42.152631 0.000000 0.000000 0.000000 14.992669 15.274454 -25.341462 -0.247654 -3.202275 8.842381 -0.925241 1.547221 -17.723122 -3.159017 10.947896 -32.104694 -5.192523 -1.329579 -26.277270 -0.253059 -0.724425 -1.631602 2.386259 -0.857896 12.917147 -7.962246 -4.427098 1.932833 16.124950 -5.756633 -9.923619 6.394320 -3.524881 -2.475385 0.000000 0.000000 0.000000 3.912103 -4.950896 -27.371069 10.237925 -17.110823 1.544301 23.761122 4.351897 14.386835 0.000000 0.000000 0.000000 -7.125000 0.000000 0.000000 -2.531547 14.334110 -1.827861 0.000000 0.000000 0.000000 2.687810 -2.489580 5.489928 -12.368780 -20.355355 -2.228928 -13.186143 18.992874 49.009028 0.000000 0.000000 0.000000 7.125000 0.000000 0.000000 52.094440 74.519091 -38.623879
9.169889 16.393630 19.268219 -179.766062 -1.341356 -152.363614 0.000000 0.000000 0.000000 -16.112293 -15.923634 -24.374057 0.229596 3.083829 8.512286 0.159689 1.150684 -8.059478 5.359607 -13.777506 -42.353777 0.000000 0.000000 0.000000 14.990307 15.320745 -25.359973 -0.249806 -3.215821 8.880191 -0.927815 1.493091 -17.761919 -3.200281 11.012400 -32.321892 -5.188840 -1.310426 -26.307425 -0.255958 -0.703392 -1.656370 2.388184 -0.849116 12.902479 -7.873590 -4.447888 1.880327 16.003688 -5.786121 -9.839338 6.336295 -3.529794 -2.445796 0.000000 0.000000 0.000000 3.969249 -4.987280 -27.576552 10.339831 -17.269302 1.574312 23.708336 4.187558 14.424462 0.000000 0.000000 0.000000 -7.125000 0.000000 0.000000 -2.569844 14.299818 -1.857434 0.000000 0.000000 0.000000 2.645748 -2.498176 5.483086 -12.344249 -20.318819 -2.220419 -13.187385 18.895140 48.777718 0.000000 0.000000 0.000000 7.125000 0.000000 0.000000 51.369223 74.396673 -37.905190
9.169010 16.392277 19.265988 -179.726846 -1.321952 -152.312905 0.000000 0.000000 0.000000 -16.066181 -15.927082 -24.414219 0.227973 3.072944 8.481995 0.158810 1.179149 -8.054543 5.458930 -13.882373 -42.768919 0.000000 0.000000 0.000000 15.008630 15.399716 -25.381204 -0.249063 -3.211223 8.867412 -0.927139 1.489846 -17.756510 -3.196156 11.006044 -32.300392 -5.147867 -1.273306 -26.385450 -0.258797 -0.669180 -1.685511 2.372971 -0.833362 12.907077 -7.770278 -4.468443 1.831308 15.899565 -5.815667 -9.753876 6.281461 -3.536893 -2.416385 0.000000 0.000000 0.000000 4.046665 -5.007766 -27.829491 10.438545 -17.422580 1.603791 23.537884 4.081609 14.382068 0.000000 0.000000 0.000000 -7.125000 0.000000 0.000000 -2.682960 14.365876 -1.935527 0.000000 0.000000 0.000000 2.629453 -2.482895 5.455973 -12.347021 -20.322944 -2.221366 -13.060205 18.757277 48.675420 0.000000 0.000000 0.000000 7.125000 0.000000 0.000000 51.159759 74.293226 -37.633522
9.168131 16.391713 19.263538 -179.702503 -1.314181 -152.308997 0.000000 0.000000 0.000000 -16.032798 -15.953713 -24.380068 0.225038 3.053397 8.427473 0.158456 1.212338 -8.063910 5.437751 -13.860133 -42.680619 0.000000 0.000000 0.000000 15.021967 15.465785 -25.340368 -0.247663 -3.202427 8.842824 -0.927075 1.476672 -17.759411 -3.164476 10.956474 -32.133544 -5.111486 -1.244323 -26.401147 -0.268810 -0.643410 -1.703454 2.349842 -0.819796 12.891860 -7.665479 -4.491053 1.742048 15.799771 -5.849413 -9.636658 6.225446 -3.544168 -2.370309 0.000000 0.000000 0.000000 4.147308 -5.003890 -28.167284 10.549551 -17.594447 1.637251 23.490516 3.952697 14.367975 0.000000 0.000000 0.000000 -7.125000 0.000000 0.000000 -2.714240 14.386794 -1.956976 0.000000 0.000000 0.000000 2.624925 -2.442946 5.502080 -12.369476 -20.356374 -2.229179 -13.148443 18.770010 48.682165 0.000000 0.000000 0.000000 7.125000 0.000000 0.000000 51.107582 74.330270 -37.626085
